<svg width="39" height="48" viewBox="0 0 39 48" fill="none" xmlns="http://www.w3.org/2000/svg">
<path d="M31.5 6H35.5C36.6 6 37.5 6.9 37.5 8V45C37.5 46.1 36.6 47 35.5 47H3.5C2.4 47 1.5 46.1 1.5 45V8C1.5 6.9 2.4 6 3.5 6H7.5" stroke="#22222C" stroke-width="2" stroke-miterlimit="10"/>
<path d="M31.5 10H33.5V43H5.5V10H7.5" stroke="#22222C" stroke-width="2" stroke-miterlimit="10"/>
<path d="M26.5 5H23.5C23.5 2.79 21.71 1 19.5 1C17.29 1 15.5 2.79 15.5 5H12.5C10.84 5 9.5 6.34 9.5 8V11H29.5V8C29.5 6.34 28.16 5 26.5 5Z" stroke="#22222C" stroke-width="2" stroke-miterlimit="10"/>
<path d="M19.5 4V6" stroke="#22222C" stroke-width="2" stroke-miterlimit="10"/>
<path d="M10.5 20L12.5 22L16.5 18" stroke="#22222C" stroke-width="2" stroke-miterlimit="10"/>
<path d="M10.5 27L12.5 29L16.5 25" stroke="#22222C" stroke-width="2" stroke-miterlimit="10"/>
<path d="M10.5 34L12.5 36L16.5 32" stroke="#22222C" stroke-width="2" stroke-miterlimit="10"/>
<path d="M19.5 20H28.5" stroke="#22222C" stroke-width="2" stroke-miterlimit="10"/>
<path d="M19.5 27H28.5" stroke="#22222C" stroke-width="2" stroke-miterlimit="10"/>
<path d="M19.5 34H28.5" stroke="#22222C" stroke-width="2" stroke-miterlimit="10"/>
</svg>
