<svg width="78" height="24" viewBox="0 0 78 24" fill="none" xmlns="http://www.w3.org/2000/svg">
<rect x="0.5" width="77" height="24" rx="6" fill="#FFE082"/>
<path d="M12.5488 16.2168C14.6582 16.2168 15.959 15.1562 15.959 13.4805V13.4746C15.959 12.1562 15.1797 11.4414 13.3926 11.0723L12.4961 10.8906C11.5 10.6855 11.0898 10.3574 11.0898 9.80664V9.80078C11.0898 9.16797 11.6699 8.76953 12.543 8.76367C13.4336 8.76367 14.0195 9.18555 14.1191 9.78906L14.1309 9.85938H15.7949L15.7891 9.7832C15.6777 8.37109 14.5176 7.32812 12.543 7.32812C10.668 7.32812 9.32031 8.36523 9.32031 9.93555V9.94141C9.32031 11.2246 10.0762 12.0449 11.834 12.4023L12.7246 12.584C13.7734 12.8008 14.1895 13.1113 14.1895 13.668V13.6738C14.1895 14.3242 13.5391 14.7754 12.5957 14.7754C11.6055 14.7754 10.9199 14.3477 10.8555 13.7148L10.8496 13.6562H9.14453L9.15039 13.75C9.25 15.25 10.5273 16.2168 12.5488 16.2168ZM19.1289 16.0996C19.9727 16.0996 20.6523 15.7422 20.9805 15.1445H21.0859V16H22.7734V11.5938C22.7734 10.2168 21.8066 9.4082 20.0957 9.4082C18.4727 9.4082 17.4062 10.1582 17.2715 11.2891L17.2656 11.3418H18.8477L18.8594 11.3184C18.9941 10.9375 19.3867 10.7207 20.002 10.7207C20.7051 10.7207 21.0859 11.0371 21.0859 11.5938V12.127L19.5273 12.2207C17.9219 12.3145 17.0254 12.9941 17.0254 14.1543V14.166C17.0254 15.3379 17.8984 16.0996 19.1289 16.0996ZM18.6953 14.0605V14.0488C18.6953 13.5801 19.0527 13.3047 19.7852 13.2578L21.0859 13.1758V13.6504C21.0859 14.3301 20.4941 14.8516 19.7031 14.8516C19.1113 14.8516 18.6953 14.5527 18.6953 14.0605ZM25.9609 16H27.8828L30.1152 9.54883H28.3164L26.9922 14.4004H26.8867L25.5508 9.54883H23.7168L25.9609 16ZM33.8359 16.1348C35.7227 16.1348 36.5547 15.0449 36.7539 14.2363L36.7656 14.1777H35.1719L35.1543 14.2129C35.0371 14.459 34.6211 14.8574 33.8711 14.8574C32.9629 14.8574 32.3945 14.2422 32.377 13.1816H36.8184V12.6484C36.8184 10.6973 35.6465 9.4082 33.7656 9.4082C31.8848 9.4082 30.6836 10.7266 30.6836 12.7773V12.7832C30.6836 14.8516 31.873 16.1348 33.8359 16.1348ZM33.7949 10.6914C34.5391 10.6914 35.0723 11.1719 35.1777 12.1094H32.3945C32.5 11.1953 33.0508 10.6914 33.7949 10.6914ZM44.5176 16.2168C46.416 16.2168 47.7285 15.0039 47.7285 13.2227V13.2109C47.7285 11.5996 46.5918 10.4395 45.0156 10.4395C44.207 10.4395 43.5508 10.791 43.2109 11.3594H43.1055L43.3164 8.95117H47.2246V7.54492H41.9395L41.5469 12.5488H43.0645C43.1582 12.3672 43.2988 12.209 43.457 12.0801C43.7383 11.8398 44.1016 11.7168 44.5293 11.7168C45.4258 11.7168 46.0645 12.3438 46.0645 13.2461V13.2578C46.0645 14.166 45.4316 14.8047 44.5234 14.8047C43.7266 14.8047 43.1465 14.3066 43.0234 13.6855L43.0117 13.6445H41.4062L41.4121 13.7266C41.5117 15.1387 42.707 16.2168 44.5176 16.2168ZM52.5332 16.2168C54.625 16.2168 55.8906 14.5059 55.8906 11.7754V11.7637C55.8906 9.02734 54.625 7.32812 52.5332 7.32812C50.4473 7.32812 49.1758 9.02734 49.1758 11.7637V11.7754C49.1758 14.5059 50.4473 16.2168 52.5332 16.2168ZM52.5332 14.8164C51.5371 14.8164 50.9688 13.6855 50.9688 11.7754V11.7637C50.9688 9.84766 51.5371 8.72852 52.5332 8.72852C53.5352 8.72852 54.1035 9.84766 54.1035 11.7637V11.7754C54.1035 13.6855 53.5352 14.8164 52.5332 14.8164ZM59.3887 12.1797C60.6309 12.1797 61.3867 11.2656 61.3867 9.80078V9.79492C61.3867 8.33008 60.6309 7.42188 59.3887 7.42188C58.1523 7.42188 57.3906 8.33008 57.3906 9.79492V9.80078C57.3906 11.2656 58.1523 12.1797 59.3887 12.1797ZM60.6895 16L66.3789 7.54492H65.0254L59.3359 16H60.6895ZM59.3887 11.2422C58.8789 11.2422 58.5918 10.7207 58.5918 9.80078V9.79492C58.5918 8.86914 58.8789 8.35938 59.3887 8.35938C59.9043 8.35938 60.1914 8.86914 60.1914 9.79492V9.80078C60.1914 10.7207 59.9043 11.2422 59.3887 11.2422ZM66.3203 16.123C67.5625 16.123 68.3184 15.209 68.3184 13.7441V13.7383C68.3184 12.2734 67.5625 11.3652 66.3203 11.3652C65.084 11.3652 64.3223 12.2734 64.3223 13.7383V13.7441C64.3223 15.209 65.084 16.123 66.3203 16.123ZM66.3203 15.1855C65.8105 15.1855 65.5234 14.6641 65.5234 13.7441V13.7383C65.5234 12.8125 65.8105 12.3027 66.3203 12.3027C66.8359 12.3027 67.123 12.8125 67.123 13.7383V13.7441C67.123 14.6641 66.8359 15.1855 66.3203 15.1855Z" fill="#22222C"/>
</svg>
