<svg width="134" height="72" viewBox="0 0 134 72" fill="none" xmlns="http://www.w3.org/2000/svg">
<path d="M56.2031 30.2698C55.3687 21.7453 44.7028 17.7687 37.7031 21.2698C27.6487 26.2987 28.6975 33.2707 33.7001 41.2698C38.7027 49.2689 43.1969 49.2695 49.6983 46.2699C56.1996 43.2703 57.0375 38.7943 56.2031 30.2698Z" fill="#E5E6AF"/>
<path fill-rule="evenodd" clip-rule="evenodd" d="M34.3752 21.2611C33.8945 20.7805 33.1153 20.7805 32.6346 21.2611C32.154 21.7417 32.154 22.521 32.6346 23.0016L42.1206 32.4876L42.1205 50.8479C42.1205 51.5276 42.6715 52.0787 43.3512 52.0787C44.031 52.0787 44.582 51.5277 44.582 50.8479L44.582 35.6851L48.4381 39.5411C48.5983 39.7013 48.5983 39.9611 48.4381 40.1213L45.7651 42.7943C45.2844 43.2749 45.2844 44.0542 45.7651 44.5348C46.2457 45.0154 47.025 45.0154 47.5056 44.5348L50.1786 41.8618C51.3001 40.7403 51.3001 38.9221 50.1786 37.8006L44.7907 32.4127L53.7919 23.4115C54.2725 22.9309 54.2725 22.1517 53.7919 21.671C53.3113 21.1904 52.532 21.1904 52.0514 21.671L43.4182 30.3042L34.3752 21.2611ZM43.1461 27.0541C44.6188 27.0541 45.8127 25.8602 45.8127 24.3875C45.8127 22.9148 44.6188 21.7209 43.1461 21.7209C41.6734 21.7209 40.4795 22.9148 40.4795 24.3875C40.4795 25.8602 41.6734 27.0541 43.1461 27.0541Z" fill="#FF9B4E"/>
<path d="M62.2539 25.7717H64.5923C66.2374 25.7717 67.1893 24.8715 67.1893 23.3195C67.1893 21.8502 66.2685 21.0121 64.6337 21.0121H62.3366C61.602 21.0121 61.2812 21.3329 61.2812 22.1296V28.6895C61.2812 28.9896 61.4778 29.1345 61.7676 29.1345C62.0469 29.1345 62.2539 28.9896 62.2539 28.6999V25.7717ZM62.2539 24.9026V22.2538C62.2539 22.0261 62.3573 21.8916 62.585 21.8916H64.5716C65.6063 21.8916 66.1753 22.409 66.1753 23.3402C66.1753 24.3438 65.6166 24.9026 64.5716 24.9026H62.2539Z" fill="#22222C"/>
<path d="M70.7613 23.1953C69.0851 23.1953 68.0814 24.4059 68.0814 26.1959C68.0814 28.0377 69.0747 29.2379 70.782 29.2379C72.3961 29.2379 73.3894 27.9963 73.3894 26.1959C73.3894 24.3956 72.4168 23.1953 70.7613 23.1953ZM70.7923 23.992C71.8477 23.992 72.4375 24.8819 72.4375 26.1856C72.4375 27.5617 71.8477 28.4412 70.7199 28.4412C69.6542 28.4412 69.0334 27.541 69.0334 26.227C69.0334 24.8508 69.6749 23.992 70.7923 23.992Z" fill="#22222C"/>
<path d="M76.8095 26.5581C77.751 26.7443 78.0201 27.0237 78.0201 27.5307C78.0201 28.0584 77.482 28.4205 76.6543 28.4205C75.8369 28.4205 75.4126 28.1205 75.2264 27.5203C75.1643 27.3237 74.9781 27.241 74.7815 27.241C74.7401 27.241 74.6884 27.2513 74.6366 27.2617C74.44 27.3031 74.2641 27.4479 74.2641 27.6548C74.2641 27.6962 74.2745 27.7376 74.2848 27.7894C74.5538 28.7102 75.3299 29.2379 76.6543 29.2379C78.1028 29.2379 78.9513 28.5033 78.9513 27.51C78.9513 26.4236 78.4132 26.0304 77.0681 25.751L76.4266 25.6165C75.5575 25.4303 75.3609 25.2233 75.3609 24.7474C75.3609 24.3128 75.7541 23.9713 76.5922 23.9713C77.182 23.9713 77.6372 24.2093 77.7717 24.6749C77.8235 24.8715 78.0097 24.9543 78.196 24.9543C78.2477 24.9543 78.3098 24.944 78.3615 24.9336C78.5478 24.8819 78.7236 24.7474 78.7236 24.5508C78.7236 24.5094 78.7133 24.468 78.703 24.4266C78.4443 23.6713 77.7097 23.185 76.5611 23.185C75.2264 23.185 74.4193 23.8265 74.4193 24.7681C74.4193 25.751 74.947 26.1959 76.2197 26.4443L76.8095 26.5581Z" fill="#22222C"/>
<path d="M80.1221 28.7206C80.1221 28.9999 80.298 29.1345 80.5877 29.1345C80.8671 29.1345 81.0637 28.9999 81.0637 28.7206V23.6816C81.0637 23.4126 80.8671 23.2781 80.5877 23.2781C80.298 23.2781 80.1221 23.4126 80.1221 23.6816V28.7206ZM80.5981 20.9397C80.2049 20.9397 79.8945 21.2398 79.8945 21.6329C79.8945 22.0365 80.2049 22.3365 80.5981 22.3365C80.9809 22.3365 81.2913 22.0365 81.2913 21.6329C81.2913 21.2398 80.9809 20.9397 80.5981 20.9397Z" fill="#22222C"/>
<path d="M83.1576 23.3402H82.3609C82.1022 23.3402 81.9884 23.5161 81.9884 23.7541C81.9884 23.992 82.1022 24.1576 82.3506 24.1576H83.1576V27.7066C83.1576 28.793 83.7784 29.2172 84.6269 29.2172C85.0718 29.2172 85.3512 29.1345 85.6512 28.9896C85.8064 28.9068 85.8685 28.762 85.8685 28.6171C85.8685 28.5447 85.8582 28.4619 85.8271 28.3895C85.7651 28.2343 85.6409 28.1205 85.4857 28.1205C85.4236 28.1205 85.3615 28.1412 85.2994 28.1722C85.1235 28.2757 84.9476 28.3481 84.689 28.3481C84.3061 28.3481 84.0889 28.1308 84.0889 27.6238V24.1576H85.4133C85.6616 24.1576 85.7961 23.992 85.7961 23.7541C85.7961 23.5057 85.6719 23.3402 85.4133 23.3402H84.0889V22.0882C84.0889 21.8192 83.8923 21.6743 83.6232 21.6743C83.3335 21.6743 83.1576 21.8192 83.1576 22.0882V23.3402Z" fill="#22222C"/>
<path d="M86.7203 28.7206C86.7203 28.9999 86.8962 29.1345 87.1859 29.1345C87.4653 29.1345 87.6619 28.9999 87.6619 28.7206V23.6816C87.6619 23.4126 87.4653 23.2781 87.1859 23.2781C86.8962 23.2781 86.7203 23.4126 86.7203 23.6816V28.7206ZM87.1962 20.9397C86.8031 20.9397 86.4927 21.2398 86.4927 21.6329C86.4927 22.0365 86.8031 22.3365 87.1962 22.3365C87.5791 22.3365 87.8895 22.0365 87.8895 21.6329C87.8895 21.2398 87.5791 20.9397 87.1962 20.9397Z" fill="#22222C"/>
<path d="M91.6907 26.7754C91.5562 27.1272 91.3596 27.8618 91.2665 28.2446C91.1837 27.8721 90.9767 27.1789 90.8526 26.8271L89.6523 23.5678C89.5799 23.3609 89.4247 23.2781 89.2385 23.2781C89.1764 23.2781 89.104 23.2884 89.0315 23.3091C88.8349 23.3609 88.7004 23.5161 88.7004 23.7127C88.7004 23.7644 88.7108 23.8161 88.7315 23.8782L90.6353 28.7102C90.7595 29.031 90.9767 29.1345 91.2561 29.1345C91.5251 29.1345 91.7528 29.0413 91.8769 28.7206L93.7808 23.8782C93.8118 23.8161 93.8222 23.7541 93.8222 23.7023C93.8222 23.5057 93.6876 23.3712 93.4807 23.3091C93.4083 23.2884 93.3462 23.2781 93.2841 23.2781C93.0979 23.2781 92.953 23.3712 92.8702 23.5782L91.6907 26.7754Z" fill="#22222C"/>
<path d="M99.1281 26.3822C99.4489 26.3822 99.6454 26.1856 99.6454 25.8131C99.6454 25.7821 99.6454 25.7614 99.6454 25.7303C99.542 24.3749 98.6935 23.1953 97.1829 23.1953C95.4963 23.1953 94.5651 24.4473 94.5651 26.2373C94.5651 28.0273 95.5481 29.2276 97.245 29.2276C98.5901 29.2276 99.1902 28.5447 99.5213 27.8618C99.5627 27.7997 99.573 27.7376 99.573 27.6755C99.573 27.4893 99.4282 27.3651 99.2523 27.3134C99.1798 27.2927 99.1074 27.272 99.035 27.272C98.8901 27.272 98.7556 27.3444 98.6625 27.5307C98.4142 28.0791 98.0003 28.4516 97.2553 28.4516C96.1378 28.4516 95.5067 27.6548 95.486 26.3822H99.1281ZM95.517 25.6269C95.6515 24.6129 96.1896 23.9507 97.1829 23.9507C98.1348 23.9507 98.5797 24.706 98.7039 25.4406C98.7039 25.4613 98.7039 25.482 98.7039 25.4923C98.7039 25.5855 98.6625 25.6269 98.5487 25.6269H95.517Z" fill="#22222C"/>
<path d="M65.6599 38.1467L62.3397 32.9626C62.1941 32.7442 62.0048 32.6568 61.8155 32.6568C61.6844 32.6568 61.5534 32.7005 61.4223 32.7587C61.1893 32.8898 61 33.1082 61 33.3558C61 33.4577 61.0291 33.5451 61.0874 33.647L64.9609 39.4427V43.5929C64.9609 43.9861 65.2376 44.1899 65.6599 44.1899C66.053 44.1899 66.3443 43.9861 66.3443 43.5929V39.4427L70.1887 33.6761C70.2615 33.5742 70.2906 33.4577 70.2906 33.3558C70.2906 33.1082 70.1159 32.8898 69.8974 32.7733C69.7664 32.7005 69.6353 32.6568 69.5042 32.6568C69.3004 32.6568 69.1111 32.7442 68.98 32.9626L65.6599 38.1467Z" fill="#22222C"/>
<path d="M75.8014 32.5403C72.6706 32.5403 70.7047 34.8557 70.7047 38.4234C70.7047 42.0348 72.6852 44.3356 75.8014 44.3356C78.9177 44.3356 80.869 42.0202 80.869 38.4379C80.869 34.8411 78.9177 32.5403 75.8014 32.5403ZM75.8014 33.7926C78.0149 33.7926 79.4274 35.5983 79.4274 38.3505C79.4274 41.2775 78.0731 43.0687 75.8014 43.0687C73.5734 43.0687 72.1464 41.2484 72.1464 38.4379C72.1464 35.6274 73.5443 33.7926 75.8014 33.7926Z" fill="#22222C"/>
<path d="M90.5628 40.2727C90.5628 41.9765 89.1794 43.0541 87.563 43.0541C85.3787 43.0541 83.8788 41.3795 83.8788 38.4379C83.8788 35.6129 85.2768 33.8072 87.5048 33.8072C89.1212 33.8072 89.8493 34.6663 90.2425 35.5401C90.3735 35.8313 90.5919 35.9332 90.8395 35.9332C90.956 35.9332 91.0871 35.9041 91.2036 35.8604C91.4365 35.7731 91.655 35.5692 91.655 35.278C91.655 35.176 91.6404 35.0886 91.5822 34.9721C91.0725 33.88 89.9221 32.5403 87.4902 32.5403C84.3157 32.5403 82.4226 35.0158 82.4226 38.4234C82.4226 41.9474 84.3303 44.321 87.5339 44.321C88.6552 44.321 89.6163 43.8696 90.1988 43.3308C90.3444 43.2143 90.5191 42.9522 90.6211 42.7774C90.5919 42.9667 90.5774 43.2288 90.5774 43.3745V43.7531C90.5774 44.088 90.8104 44.2919 91.2036 44.2919C91.5822 44.2919 91.8152 44.088 91.8152 43.6657V39.5592C91.8152 38.6709 91.4802 38.2923 90.6211 38.2923H88.2766C87.8834 38.2923 87.6941 38.569 87.6941 38.933C87.6941 39.2971 87.8834 39.5446 88.2766 39.5446H90.1842C90.49 39.5446 90.5628 39.7048 90.5628 39.9524V40.2727Z" fill="#22222C"/>
<path d="M95.7709 40.7824H100.809L101.96 43.7968C102.062 44.0734 102.295 44.2045 102.557 44.2045C102.644 44.2045 102.732 44.1899 102.819 44.1608C103.11 44.088 103.343 43.8696 103.343 43.5783C103.343 43.491 103.329 43.4181 103.285 43.3308L99.3241 33.3558C99.1348 32.8606 98.7561 32.6713 98.2902 32.6713C97.8387 32.6713 97.4747 32.8606 97.2854 33.3558L93.3245 43.3017C93.2954 43.389 93.2808 43.4618 93.2808 43.5492C93.2808 43.8259 93.4992 44.0734 93.7905 44.1463C93.8924 44.1754 93.9798 44.1899 94.0817 44.1899C94.3293 44.1899 94.5477 44.0734 94.6496 43.7822L95.7709 40.7824ZM96.2078 39.5592L97.8533 35.3362C98.028 34.8993 98.1737 34.4334 98.3047 33.9382C98.4358 34.4334 98.596 34.8993 98.7561 35.3216L100.373 39.5592H96.2078Z" fill="#22222C"/>
</svg>
